<?xml version="1.0" encoding="UTF-8" standalone="no"?>
<svg
   xmlns:dc="http://purl.org/dc/elements/1.1/"
   xmlns:cc="http://creativecommons.org/ns#"
   xmlns:rdf="http://www.w3.org/1999/02/22-rdf-syntax-ns#"
   xmlns:svg="http://www.w3.org/2000/svg"
   xmlns="http://www.w3.org/2000/svg"
   xmlns:sodipodi="http://sodipodi.sourceforge.net/DTD/sodipodi-0.dtd"
   xmlns:inkscape="http://www.inkscape.org/namespaces/inkscape"
   width="76px"
   height="72px"
   viewBox="0 0 76 72"
   version="1.1"
   id="svg2"
   inkscape:version="0.48.3.1 r9886"
   sodipodi:docname="ah-frame.svg">
  <metadata
     id="metadata17">
    <rdf:RDF>
      <cc:Work
         rdf:about="">
        <dc:format>image/svg+xml</dc:format>
        <dc:type
           rdf:resource="http://purl.org/dc/dcmitype/StillImage" />
      </cc:Work>
    </rdf:RDF>
  </metadata>
  <sodipodi:namedview
     pagecolor="#ffffff"
     bordercolor="#666666"
     borderopacity="1"
     objecttolerance="10"
     gridtolerance="10"
     guidetolerance="10"
     inkscape:pageopacity="0"
     inkscape:pageshadow="2"
     inkscape:window-width="1096"
     inkscape:window-height="775"
     id="namedview15"
     showgrid="false"
     inkscape:zoom="3.2777778"
     inkscape:cx="59.70223"
     inkscape:cy="33.559322"
     inkscape:window-x="50"
     inkscape:window-y="24"
     inkscape:window-maximized="0"
     inkscape:current-layer="svg2" />
  <title
     id="title4">ah-frame</title>
  <description
     id="description6">Created with Sketch (http://www.bohemiancoding.com/sketch)</description>
  <defs
     id="defs8" />
  <g
     id="Page 1"
     stroke="none"
     stroke-width="1"
     fill="none"
     fill-rule="evenodd">
    <g
       id="ah-frame">
      <path
         d="M52.0417796,0.361780962 L63.9953881,71.638219 C64.0289982,71.8386277 63.8752865,72 63.6522891,72 L57.626759,72 L56.7513666,66.7802501 C56.7179994,66.5812894 56.5128588,66.42 56.2892735,66.42 L18.1149795,66.42 C17.8931397,66.42 17.7403189,66.5810889 17.7737198,66.7802501 L18.6491121,72 L12.4226663,72 C12.1971155,72 11.9917294,71.8380251 11.9582204,71.638219 L0.00461190787,0.361780962 C-0.0289981785,0.161372253 0.124713526,0 0.347710884,0 L51.5773337,0 C51.8028845,0 52.0082706,0.161974854 52.0417796,0.361780962 Z M52.0417796,0.361780962"
         id="Rectangle 1 copy"
         fill="#81ACD1"
         transform="translate(32.000000, 36.000000) scale(-1, 1) translate(-32.000000, -36.000000) " />
      <path
         d="M64.0417796,0.361780962 L75.9953881,71.638219 C76.0289982,71.8386277 75.8752865,72 75.6522891,72 L69.626759,72 L68.7513666,66.7802501 C68.7179994,66.5812894 68.5128588,66.42 68.2892735,66.42 L30.1149795,66.42 C29.8931397,66.42 29.7403189,66.5810889 29.7737198,66.7802501 L30.6491121,72 L24.4226663,72 C24.1971155,72 23.9917294,71.8380251 23.9582204,71.638219 L12.0046119,0.361780962 C11.9710018,0.161372253 12.1247135,0 12.3477109,0 L63.5773337,0 C63.8028845,0 64.0082706,0.161974854 64.0417796,0.361780962 Z M64.0417796,0.361780962"
         id="Rectangle 1"
         fill="#B8D6E0" />
    </g>
  </g>
  <text
     xml:space="preserve"
     style="font-size:37.43999863px;font-style:italic;font-variant:normal;font-weight:bold;font-stretch:normal;line-height:125%;letter-spacing:0px;word-spacing:0px;fill:#0088aa;fill-opacity:1;stroke:none;font-family:Garamond;-inkscape-font-specification:Garamond Bold Italic"
     x="13.705"
     y="26.250731"
     id="text3005"
     sodipodi:linespacing="125%"
     transform="matrix(1,0,0.19138571,1,0,0)"><tspan
       sodipodi:role="line"
       style="font-size:14px;font-style:normal;font-variant:normal;font-weight:800;font-stretch:normal;text-align:start;line-height:125%;writing-mode:lr-tb;text-anchor:start;fill:#0088aa;font-family:Alegreya Sans;-inkscape-font-specification:Alegreya Sans Ultra-Bold"
       x="13.705"
       y="26.250731"
       id="tspan3791"><tspan
   dx="-1.1422375"
   id="tspan3793"
   style="font-size:14px;font-style:normal;font-variant:normal;font-weight:800;font-stretch:normal;text-align:start;line-height:125%;writing-mode:lr-tb;text-anchor:start;fill:#0088aa;font-family:Alegreya Sans;-inkscape-font-specification:Alegreya Sans Ultra-Bold"><tspan
   style="font-size:20px;font-style:normal;font-variant:normal;font-weight:800;font-stretch:normal;text-align:start;line-height:125%;writing-mode:lr-tb;text-anchor:start;font-family:Alegreya Sans;-inkscape-font-specification:Alegreya Sans Ultra-Bold"
   id="tspan3795">f</tspan>u</tspan>rth </tspan><tspan
       sodipodi:role="line"
       id="tspan3021"
       style="font-size:14px;font-style:normal;font-variant:normal;font-weight:800;font-stretch:normal;text-align:start;line-height:125%;writing-mode:lr-tb;text-anchor:start;fill:#0088aa;font-family:Alegreya Sans;-inkscape-font-specification:Alegreya Sans Ultra-Bold"
       x="13.705"
       y="51.250732"
       dx="0 0 -1.4277965"><tspan
   style="font-size:20px;font-style:normal;font-variant:normal;font-weight:800;font-stretch:normal;text-align:start;line-height:125%;writing-mode:lr-tb;text-anchor:start;font-family:Alegreya Sans;-inkscape-font-specification:Alegreya Sans Ultra-Bold"
   id="tspan3797">  b</tspan>urner</tspan></text>
</svg>
